<?xml version="1.0" encoding="UTF-8"?>
<svg version="1.1" xmlns="http://www.w3.org/2000/svg" width="460" height="460">
<path d="M0 0 C1.57289543 -0.01062721 1.57289543 -0.01062721 3.17756653 -0.02146912 C4.32260147 -0.0189917 5.46763641 -0.01651428 6.64736938 -0.01396179 C7.85751205 -0.01907272 9.06765472 -0.02418365 10.31446838 -0.02944946 C13.63072678 -0.04096867 16.94673523 -0.04341883 20.2629962 -0.04088616 C23.03378166 -0.03981579 25.80454412 -0.04470163 28.57532465 -0.04949158 C35.11416829 -0.06058487 41.65295448 -0.06102548 48.19180298 -0.05497742 C54.93104228 -0.04893968 61.6700727 -0.06124382 68.40927637 -0.08254749 C74.20049918 -0.10017938 79.99165561 -0.10616227 85.78290427 -0.10290974 C89.23941516 -0.10109894 92.69577711 -0.10371245 96.15226364 -0.11762428 C100.00878808 -0.13256538 103.86504785 -0.12321856 107.72158813 -0.11161804 C109.43306786 -0.12308365 109.43306786 -0.12308365 111.17912292 -0.13478088 C116.88670541 -0.09680576 120.98897882 0.08586087 125.81387329 3.26069641 C125.81387329 3.92069641 125.81387329 4.58069641 125.81387329 5.26069641 C127.02043579 5.60100891 127.02043579 5.60100891 128.25137329 5.94819641 C136.79426727 9.0955784 144.60019039 14.42963984 152.43887329 19.01069641 C153.49485718 19.62686829 154.55084106 20.24304016 155.63882446 20.87788391 C161.49244954 24.29924613 167.32516338 27.75128443 173.12637329 31.26069641 C181.49428984 36.31671825 190.03753605 40.95532342 198.81387329 45.26069641 C198.81387329 45.92069641 198.81387329 46.58069641 198.81387329 47.26069641 C199.54863892 47.54815735 200.28340454 47.83561829 201.04043579 48.13179016 C210.86215541 52.12964505 219.79317417 57.75086556 228.81387329 63.26069641 C233.8223747 66.31056599 238.83526884 69.29669975 244.00137329 72.07319641 C248.52160639 74.50913532 252.9238966 77.10053949 257.31387329 79.76069641 C262.47641962 82.88585638 267.67267322 85.90157854 272.99551392 88.74897766 C275.88477409 90.29872636 278.76443836 91.86512129 281.64199829 93.43647766 C283.10234497 94.23372253 283.10234497 94.23372253 284.5921936 95.04707336 C285.3253479 95.44756897 286.0585022 95.84806458 286.81387329 96.26069641 C287.27204092 130.19750586 287.62425712 164.1335436 287.83517988 198.07276089 C287.86019285 202.08300227 287.88607941 206.09323756 287.9125061 210.10346985 C287.91775231 210.90180688 287.92299852 211.70014392 287.92840371 212.52267298 C288.01534178 225.43563505 288.17297671 238.34680939 288.35692921 251.2587122 C288.544221 264.51596395 288.65510113 277.77228215 288.69564319 291.03080249 C288.7230382 299.20783026 288.80939602 307.37980582 288.97220263 315.55527696 C289.07825655 321.16813496 289.10980847 326.77839772 289.08390084 332.39218393 C289.0711261 335.62992045 289.10114339 338.8570578 289.19798279 342.0936203 C289.73573847 360.9981911 289.73573847 360.9981911 284.8387289 366.46610928 C280.04252094 370.31648425 274.79688186 372.93817599 269.13765478 375.28591681 C266.23539212 376.50335763 263.53722528 378.00074073 260.81387329 379.57319641 C259.99016235 380.01276672 259.16645142 380.45233704 258.31777954 380.90522766 C251.67710063 384.50010376 245.20823523 388.41025635 238.75137329 392.32319641 C235.43553581 394.32261687 232.08412646 396.2175685 228.67324829 398.04975891 C223.07473725 401.09093118 217.59482525 404.3054149 212.12637329 407.57319641 C205.68867232 411.40123833 199.23770245 415.18833454 192.68887329 418.82319641 C185.6600515 422.72607571 178.78159438 426.86157642 171.90127563 431.01948547 C166.76745277 434.11354386 161.5973195 437.090426 156.30606079 439.90913391 C153.47785393 441.44292635 150.71030064 443.06413405 147.93887329 444.69819641 C143.55794894 447.2671154 139.14865155 449.76959814 134.68887329 452.19819641 C133.61379517 452.78471985 132.53871704 453.37124329 131.43106079 453.97554016 C128.81387329 455.26069641 128.81387329 455.26069641 126.81387329 455.26069641 C126.81387329 455.92069641 126.81387329 456.58069641 126.81387329 457.26069641 C121.03973542 461.05760482 115.39726856 460.7044744 108.64907837 460.69648743 C107.42716797 460.70656326 106.20525757 460.7166391 104.94631958 460.72702026 C101.6049621 460.75059273 98.26416405 460.76055042 94.92276216 460.76246762 C92.83042355 460.76460571 90.73814288 460.77102118 88.64581871 460.77895927 C81.33225178 460.80669118 74.01884848 460.81896816 66.70523071 460.81660461 C59.91129973 460.81480522 53.11808562 460.84640827 46.32433587 460.8938356 C40.47352676 460.93320965 34.62295043 460.94915008 28.77201003 460.94723839 C25.28554819 460.9464774 21.79972322 460.95480612 18.31339455 460.98677254 C14.41719869 461.0215229 10.52196584 461.00748675 6.62564087 460.98945618 C5.48707138 461.0063147 4.34850189 461.02317322 3.1754303 461.0405426 C-5.03553579 460.94443302 -10.32945266 458.64272836 -17.18612671 454.26069641 C-18.90669395 453.27588872 -20.63137476 452.29819692 -22.36190796 451.33100891 C-24.07480324 450.35038252 -25.78703257 449.36859206 -27.49862671 448.38569641 C-29.33454288 447.33357585 -31.17048042 446.28149259 -33.00643921 445.22944641 C-34.33143433 444.46954407 -34.33143433 444.46954407 -35.68319702 443.69429016 C-37.88785888 442.43153417 -40.09467633 441.17273054 -42.30331421 439.91694641 C-49.75687524 435.67816107 -57.13936401 431.33904823 -64.45956421 426.87397766 C-70.08474251 423.46336291 -75.79191764 420.21195229 -81.53060913 416.99751282 C-94.34537887 409.81627491 -107.09740084 402.52705653 -119.73934937 395.04560852 C-125.29265934 391.76659177 -130.89113056 388.57096798 -136.49862671 385.38569641 C-144.61421919 380.77505772 -152.64286805 376.03552461 -160.61508179 371.18110657 C-161.77753418 370.47606995 -161.77753418 370.47606995 -162.96347046 369.75679016 C-163.97268555 369.1408197 -163.97268555 369.1408197 -165.00228882 368.5124054 C-167.67580179 366.98002965 -170.42656458 365.63085313 -173.18612671 364.26069641 C-173.52957837 330.39997754 -173.79382891 296.53969254 -173.95210665 262.67761821 C-173.9708669 258.67853401 -173.99028177 254.67945323 -174.01010132 250.68037415 C-174.01403597 249.8842408 -174.01797063 249.08810745 -174.02202452 248.26784884 C-174.08726782 235.38237459 -174.20551878 222.49790574 -174.34341865 209.61302764 C-174.48377135 196.38851182 -174.56702414 183.16452192 -174.59745413 169.93929189 C-174.61802211 161.78010972 -174.68292892 153.62376903 -174.80487371 145.4654619 C-174.89366463 139.20572003 -174.90293715 132.94813649 -174.88274193 126.68785095 C-174.88686771 124.12264965 -174.91669892 121.55734056 -174.97420883 118.99278069 C-175.37765076 100.07342035 -175.37765076 100.07342035 -171.70262837 95.35669208 C-167.65711356 91.8479762 -163.17628212 90.05945836 -158.18612671 88.26069641 C-156.71069201 87.46413138 -155.24649743 86.64409167 -153.81893921 85.76460266 C-152.6507034 85.11560064 -151.48145498 84.46841751 -150.31112671 83.82319641 C-144.86992776 80.79252002 -139.48071605 77.68755279 -134.12362671 74.51069641 C-126.27396538 69.85818966 -118.33876434 65.36391063 -110.37924194 60.90229797 C-104.24954359 57.45861096 -98.19607626 53.90911631 -92.18612671 50.26069641 C-84.47250631 45.58963431 -76.76931896 40.96725079 -68.82284546 36.69819641 C-65.10260757 34.66997783 -61.45987566 32.51701569 -57.80722046 30.37007141 C-53.18712131 27.66601338 -48.52643558 25.03289847 -43.87362671 22.38569641 C-36.89919552 18.41402486 -29.97622659 14.37271955 -23.10946655 10.2179718 C-18.52980823 7.45128234 -13.91224532 4.76987239 -9.18612671 2.26069641 C-8.59530493 1.91601224 -8.00448315 1.57132807 -7.39575768 1.21619892 C-4.77061372 0.08101767 -2.85641811 0.00644158 0 0 Z " fill="#010101" transform="translate(173.18612670898438,-0.2606964111328125)"/>
<path d="M0 0 C1.0857447 -0.00339833 1.0857447 -0.00339833 2.19342363 -0.00686532 C4.59579315 -0.01314707 6.9981054 -0.01237973 9.40048218 -0.0115509 C11.13261995 -0.01454611 12.86475707 -0.01794947 14.59689331 -0.02172852 C19.28729624 -0.0305377 23.9776809 -0.03290538 28.6680913 -0.0335443 C31.60435582 -0.03425676 34.54061574 -0.03639481 37.47687912 -0.03904152 C47.73754926 -0.04828599 57.99820644 -0.05237769 68.25888062 -0.05158997 C77.79500171 -0.05098999 87.33106608 -0.06152848 96.86717284 -0.07733363 C105.07640491 -0.09045048 113.28561855 -0.0957721 121.49486101 -0.09513456 C126.38793774 -0.09488071 131.28096409 -0.09766868 136.1740303 -0.10831261 C140.78204688 -0.11806315 145.38996562 -0.11802556 149.99798584 -0.11079597 C151.67884847 -0.1097586 153.35971741 -0.11206198 155.04056931 -0.11815643 C181.44350201 -0.20760364 181.44350201 -0.20760364 193.12460327 5.82121277 C193.84647827 6.17788025 194.56835327 6.53454773 195.31210327 6.90202332 C200.04722402 9.29779428 204.41507248 11.98322975 208.67147827 15.16105652 C212.23033701 17.75820054 215.91904814 20.12744604 219.62460327 22.50871277 C220.35630737 22.98067078 221.08801147 23.45262878 221.84188843 23.93888855 C225.2855645 26.15740333 228.73559984 28.36544965 232.19491577 30.55949402 C241.26272796 36.32121796 249.99168906 42.4056076 258.37460327 49.13371277 C250.7808592 49.44022648 243.18873014 49.64902592 235.59017944 49.79289246 C233.01079722 49.85291186 230.43181763 49.93456059 227.85385132 50.03898621 C204.0857301 50.97702001 204.0857301 50.97702001 197.01869202 44.95518494 C194.59539348 42.48870873 192.5080548 39.85549962 190.37460327 37.13371277 C172.5858644 22.70367465 151.77565801 22.65559791 129.99960327 22.44621277 C127.60635607 22.41298223 125.21312606 22.37848744 122.81991577 22.34269714 C117.00492972 22.25845514 111.18992518 22.18983592 105.37460327 22.13371277 C104.78820074 24.71637922 104.20554636 27.29981667 103.62460327 29.88371277 C103.46733765 30.57465027 103.31007202 31.26558777 103.14804077 31.97746277 C101.05125751 41.33234192 99.25642081 50.72462509 97.37460327 60.13371277 C23.12460327 60.13371277 -51.12539673 60.13371277 -127.62539673 60.13371277 C-118.779651 53.49940348 -108.75590298 48.64225028 -98.85977173 43.78215027 C-95.1929873 41.91333019 -91.72873288 39.81587329 -88.23086548 37.65324402 C-85.20006954 35.88565838 -82.09203772 34.35766443 -78.93789673 32.82121277 C-71.92169393 29.39181113 -65.2996813 25.43241759 -58.64199829 21.36027527 C-55.00856129 19.150301 -51.34943256 16.98420808 -47.68789673 14.82121277 C-47.00235718 14.41282166 -46.31681763 14.00443054 -45.61050415 13.58366394 C-38.50927381 9.39081085 -31.531569 5.84740376 -23.62539673 3.44621277 C-22.63539673 3.1281366 -22.63539673 3.1281366 -21.62539673 2.80363464 C-14.48383189 0.59281819 -7.4580329 0.00971078 0 0 Z " fill="#FEFEFE" transform="translate(164.62539672851563,51.86628723144531)"/>
<path d="M0 0 C73.59 0 147.18 0 223 0 C219.1683675 3.065306 216.0301381 5.21061231 211.7734375 7.4609375 C211.18511139 7.77398834 210.59678528 8.08703918 209.9906311 8.40957642 C208.12131067 9.40296481 206.24832685 10.3891914 204.375 11.375 C203.1416653 12.02815175 201.90859021 12.68179397 200.67578125 13.3359375 C198.85541189 14.30180911 197.03489276 15.26737754 195.21333313 16.23100281 C190.59918417 18.67358308 186.00983216 21.15904716 181.43188477 23.66870117 C178.81415363 25.1017388 176.18870611 26.52006413 173.5625 27.9375 C166.03138885 32.05221551 158.52961143 36.22064852 151.4375 41.0625 C128.81172627 56.30767374 106.94146676 60.15497745 80.13085938 60.14526367 C78.46385117 60.14826217 76.79684366 60.15166627 75.12983704 60.15544128 C70.63607982 60.1642122 66.14234169 60.16661638 61.64857674 60.16725707 C58.83425324 60.16797116 56.01993449 60.17011217 53.20561218 60.17275429 C43.36867976 60.18198268 33.53176083 60.18609206 23.69482422 60.18530273 C14.55393284 60.18470163 5.41310041 60.1952663 -3.72777605 60.2110464 C-11.60330242 60.22415328 -19.47880957 60.22948536 -27.35434675 60.22884732 C-32.04609222 60.2285934 -36.73778514 60.23138662 -41.42951965 60.24202538 C-45.84223978 60.25176035 -50.25485767 60.25174881 -54.66758156 60.24450874 C-56.2783352 60.2434698 -57.88909539 60.24578431 -59.49983788 60.2518692 C-71.98741091 60.29595574 -83.65752615 59.70132635 -95.125 54.3125 C-95.90286865 53.95583252 -96.6807373 53.59916504 -97.48217773 53.23168945 C-102.44202797 50.89675734 -106.93296304 48.29944117 -111.3125 44.984375 C-114.95386413 42.29569334 -118.7525549 39.87897503 -122.5625 37.4375 C-124.0392898 36.48733235 -125.51585872 35.5368213 -126.9921875 34.5859375 C-127.68538086 34.13959961 -128.37857422 33.69326172 -129.09277344 33.23339844 C-132.75658189 30.86402308 -136.3797799 28.43515803 -140 26 C-143.0274585 23.97616473 -146.05962406 21.96092562 -149.10546875 19.96484375 C-150.12253906 19.29582031 -151.13960937 18.62679688 -152.1875 17.9375 C-153.21230469 17.26589844 -154.23710937 16.59429687 -155.29296875 15.90234375 C-157.47935881 14.36587628 -159.16462206 12.90473913 -161 11 C-153.40625593 10.69348629 -145.81412686 10.48468685 -138.21557617 10.34082031 C-135.63619395 10.28080091 -133.05721436 10.19915218 -130.47924805 10.09472656 C-106.6947538 9.15604658 -106.6947538 9.15604658 -99.81040955 15.09126282 C-97.36557999 17.60296063 -95.19689474 20.26821502 -93 23 C-90.54801218 24.96600583 -87.99472703 26.54186703 -85.25 28.0625 C-84.62077637 28.42408203 -83.99155273 28.78566406 -83.34326172 29.15820312 C-71.80710718 35.62818432 -60.96492062 36.16041596 -47.96484375 36.09765625 C-46.84557999 36.0962413 -45.72631622 36.09482635 -44.57313538 36.09336853 C-41.02789542 36.08780879 -37.48272059 36.07526385 -33.9375 36.0625 C-31.52148529 36.05747979 -29.10546959 36.0529178 -26.68945312 36.04882812 C-20.79294685 36.03785257 -14.89647808 36.02115496 -9 36 C-7.34715677 30.64812561 -5.74427527 25.34272613 -4.6484375 19.84375 C-4.43703125 18.8021875 -4.225625 17.760625 -4.0078125 16.6875 C-3.79898438 15.635625 -3.59015625 14.58375 -3.375 13.5 C-2.94781621 11.36408106 -2.51825199 9.22863638 -2.0859375 7.09375 C-1.9007959 6.16240234 -1.7156543 5.23105469 -1.52490234 4.27148438 C-1 2 -1 2 0 0 Z " fill="#FCFCFC" transform="translate(199,349)"/>
<path d="M0 0 C39.6 0 79.2 0 120 0 C120 6.93 120 13.86 120 21 C87.33 21 54.66 21 21 21 C20.67 28.92 20.34 36.84 20 45 C22.28019043 44.98952637 24.56038086 44.97905273 26.90966797 44.96826172 C34.4732723 44.93500898 42.03688 44.91298536 49.60053825 44.89637566 C54.1829505 44.88597231 58.76528737 44.87187662 63.34765625 44.84912109 C67.77618264 44.82726906 72.20463686 44.81540548 76.63321304 44.81024551 C78.31635803 44.80657183 79.99949941 44.79939849 81.68261337 44.78853989 C97.09538375 44.69312778 109.53264505 45.44233009 121.30859375 56.2734375 C127.48302858 62.57620931 128.4617985 70.23375717 128.42944336 78.74414062 C128.1652395 87.82032026 125.39974997 95.16468654 118.75 101.5 C109.19950094 109.13406392 98.60538751 111.31915765 86.63671875 111.22705078 C85.63093277 111.22734283 84.62514679 111.22763489 83.58888245 111.22793579 C80.28833166 111.22655049 76.98801101 111.21102699 73.6875 111.1953125 C71.38964969 111.19157953 69.09179779 111.1887339 66.79394531 111.18673706 C60.76385049 111.17912301 54.73385294 111.15949366 48.70379639 111.1373291 C42.54342972 111.11682263 36.38304725 111.10772509 30.22265625 111.09765625 C18.14838802 111.07624565 6.07421734 111.04108166 -6 111 C-6 104.07 -6 97.14 -6 90 C-1.65521484 89.97812622 -1.65521484 89.97812622 2.77734375 89.95581055 C12.36073301 89.90541338 21.94396067 89.83880909 31.52719116 89.76428509 C37.33598435 89.71960866 43.14470784 89.68034632 48.95361328 89.65356445 C54.56232971 89.62750457 60.17077753 89.58708266 65.77932739 89.53681374 C67.91623588 89.52016327 70.05319081 89.50863769 72.19015503 89.50238609 C75.18955465 89.49272539 78.1882699 89.46464186 81.1875 89.43237305 C82.50488914 89.43452568 82.50488914 89.43452568 83.84889221 89.4367218 C90.4987984 89.33592333 95.82889737 88.06121671 101.5 84.375 C103.82294419 80.69700503 103.75427747 77.22395384 103 73 C100.86548113 69.41705762 98.89169762 67.42444482 95 66 C92.00255298 65.82536717 89.09983446 65.76093557 86.10400391 65.79223633 C84.75696129 65.79403397 84.75696129 65.79403397 83.38270569 65.79586792 C81.43421008 65.79901637 79.48571776 65.80632522 77.53725052 65.8173008 C74.45189239 65.83214998 71.36696758 65.83055659 68.28158569 65.82365417 C59.50985071 65.80481687 50.73845254 65.7984182 41.96679688 65.84545898 C36.59968894 65.87305298 31.23352792 65.86672712 25.866436 65.83844566 C23.82272382 65.83418579 21.77894353 65.84266411 19.73534012 65.8641758 C16.87408797 65.89305452 14.01601419 65.87873985 11.15478516 65.85473633 C10.31302231 65.87369461 9.47125946 65.89265289 8.60398865 65.91218567 C5.14948062 65.84552995 2.89457716 65.69881676 0.12018204 63.53154278 C-3.43025817 59.62936559 -4.66912839 56.86801871 -4.42614746 51.56999207 C-4.3577063 50.78763687 -4.28926514 50.00528168 -4.21875 49.19921875 C-4.17061157 48.36397171 -4.12247314 47.52872467 -4.07287598 46.66816711 C-3.91164917 44.00505903 -3.70619489 41.34746245 -3.5 38.6875 C-3.39040466 36.94483679 -3.28361126 35.201995 -3.1796875 33.45898438 C-2.46978571 22.25200057 -1.24239743 11.18157683 0 0 Z " fill="#FEFEFE" transform="translate(47,218)"/>
<path d="M0 0 C43.23 0 86.46 0 131 0 C131 34.89682207 131 34.89682207 119.41918945 46.8815918 C111.61239253 54.50315578 102.65098981 59.85385941 93.28344727 65.28515625 C78.57665986 73.35856579 78.57665986 73.35856579 69.45581055 86.79101562 C68.94099859 89.28593718 68.78718911 91.65763901 68.68359375 94.203125 C68.64548584 95.08645508 68.60737793 95.96978516 68.56811523 96.87988281 C68.52501221 97.99202148 68.48190918 99.10416016 68.4375 100.25 C68.293125 103.7975 68.14875 107.345 68 111 C59.75 111 51.5 111 43 111 C42.938125 107.225625 42.87625 103.45125 42.8125 99.5625 C42.77153198 97.80595093 42.77153198 97.80595093 42.72973633 96.01391602 C42.62935832 83.25943356 46.75539886 73.87646811 55.40625 64.5234375 C59.57278899 60.46984685 64.18486949 57.23341612 69 54 C69.763125 53.46632813 70.52625 52.93265625 71.3125 52.3828125 C75.23532583 49.6788647 79.21314819 47.32900964 83.4375 45.125 C94.8880885 38.95806314 101.88067847 32.35796459 106 20 C71.02 20 36.04 20 0 20 C0 13.4 0 6.8 0 0 Z " fill="#FEFEFE" transform="translate(232,218)"/>
<path d="M0 0 C1.35620064 0.00186845 2.71240196 0.00329033 4.06860352 0.00428772 C7.61295483 0.00807929 11.15726421 0.0178803 14.70159912 0.0289917 C18.32840406 0.03927863 21.95521588 0.04380084 25.58203125 0.04882812 C32.67970614 0.05950607 39.7773459 0.07707508 46.875 0.09765625 C46.875 4.38765625 46.875 8.67765625 46.875 13.09765625 C45.13484619 13.11223877 43.39469238 13.12682129 41.60180664 13.1418457 C35.82216728 13.19370244 30.04276276 13.25904258 24.26337528 13.33337116 C20.7627656 13.37790733 17.26226781 13.41719894 13.76147461 13.4440918 C9.72741123 13.47531942 5.69395464 13.53010026 1.66015625 13.5859375 C0.41605484 13.59232742 -0.82804657 13.59871735 -2.10984802 13.6053009 C-13.76886631 13.78219281 -13.76886631 13.78219281 -23.5625 19.41015625 C-25.49096521 22.51739702 -25.49096521 22.51739702 -27.125 28.09765625 C-3.035 28.09765625 21.055 28.09765625 45.875 28.09765625 C45.875 32.38765625 45.875 36.67765625 45.875 41.09765625 C22.115 41.09765625 -1.645 41.09765625 -26.125 41.09765625 C-24.14242371 48.38100663 -24.14242371 48.38100663 -19.125 53.09765625 C-15.39771829 54.11006497 -11.80721797 54.24718932 -7.95776367 54.30297852 C-6.73687546 54.32292374 -5.51598724 54.34286896 -4.25810242 54.36341858 C-2.94960831 54.38013107 -1.6411142 54.39684357 -0.29296875 54.4140625 C1.06752628 54.43465205 2.42801519 54.45564903 3.78849792 54.47703552 C7.35748323 54.53204972 10.92652427 54.58154942 14.49560547 54.62988281 C18.14230266 54.68024931 21.78891959 54.73585605 25.43554688 54.79101562 C32.58196287 54.89834431 39.72845323 54.99936002 46.875 55.09765625 C46.875 59.71765625 46.875 64.33765625 46.875 69.09765625 C38.70313814 69.16571438 30.53150048 69.22063387 22.35943031 69.25309277 C18.5638937 69.26867956 14.7685628 69.28978813 10.97314453 69.32397461 C7.30321638 69.35681998 3.63348478 69.37456166 -0.03657913 69.38228798 C-1.42947097 69.38778672 -2.82235333 69.39852311 -4.21516037 69.41484642 C-15.15286799 69.53781387 -24.72910851 68.93091153 -33.4375 61.75 C-40.88001277 54.46253958 -41.21563733 44.40568178 -41.375 34.53515625 C-41.24316768 25.87816742 -40.75627153 15.19806957 -34.62109375 8.44140625 C-24.5648277 -0.73746746 -12.81972381 -0.05117226 0 0 Z " fill="#FDFDFD" transform="translate(165.125,132.90234375)"/>
<path d="M0 0 C19 0 19 0 26 6 C27.64630487 7.96987108 29.2319421 9.99218311 30.75 12.0625 C34.28531941 16.80979111 37.9535402 21.3867128 41.8125 25.875 C45.44421189 30.10790531 48.8796925 34.37333715 52 39 C55.11371403 37.66176546 56.71170127 36.40691288 58.625 33.625 C61.55629397 29.5402896 64.71870962 25.70624394 67.96191406 21.8659668 C71.85815721 17.2255383 75.58215752 12.45893598 79.24487305 7.63232422 C81.6762323 4.47903481 83.75726455 2.43205159 87 0 C93.27 0 99.54 0 106 0 C106 22.77 106 45.54 106 69 C101.38 69 96.76 69 92 69 C91.67 51.51 91.34 34.02 91 16 C87.37 20.62 83.74 25.24 80 30 C72.828125 39.03125 72.828125 39.03125 71 41 C70.34 41 69.68 41 69 41 C68.73960937 41.72574219 68.47921875 42.45148438 68.2109375 43.19921875 C66.11632797 48.04384789 63.28212944 51.8784477 59 55 C54.88552061 55.74442903 51.13001215 55.55755164 47 55 C47 54.34 47 53.68 47 53 C46.01 52.67 45.02 52.34 44 52 C42.45703125 50.28515625 42.45703125 50.28515625 40.8125 48.0625 C37.48920407 43.63143876 34.02784915 39.3392706 30.50390625 35.06640625 C29 33 29 33 29 31 C28.01 30.67 27.02 30.34 26 30 C24.31640625 28.109375 24.31640625 28.109375 22.5625 25.75 C21.69818359 24.59757812 21.69818359 24.59757812 20.81640625 23.421875 C20.21699219 22.62265625 19.61757813 21.8234375 19 21 C17.68 19.35 16.36 17.7 15 16 C14.67 33.49 14.34 50.98 14 69 C9.38 69 4.76 69 0 69 C0 46.23 0 23.46 0 0 Z " fill="#FDFDFD" transform="translate(317,133)"/>
<path d="M0 0 C9.32290638 7.18516988 13.7929395 18.30347664 18.54296875 28.6875 C20.49742409 32.95623408 22.65673051 37.06530266 24.9453125 41.1640625 C27.32080468 45.43994843 29.63532369 49.74678329 31.9375 54.0625 C32.38279053 54.88427734 32.82808105 55.70605469 33.28686523 56.55273438 C33.70395752 57.33712891 34.1210498 58.12152344 34.55078125 58.9296875 C34.92630127 59.6294873 35.30182129 60.32928711 35.6887207 61.05029297 C36.72281728 63.41078356 37.20453088 65.65138103 37.625 68.1875 C32.41387419 68.91182637 27.80881088 69.25412775 22.625 68.1875 C19.15267135 64.64965571 17.44106122 60.75427284 15.625 56.1875 C14.635 54.2075 14.635 54.2075 13.625 52.1875 C-3.205 51.8575 -20.035 51.5275 -37.375 51.1875 C-38.035 53.1675 -38.695 55.1475 -39.375 57.1875 C-41.25867793 60.9255759 -43.3260539 64.53503087 -45.375 68.1875 C-50.655 68.1875 -55.935 68.1875 -61.375 68.1875 C-59.68265048 63.95662619 -57.80410638 59.93120381 -55.75 55.875 C-55.02461519 54.43495849 -54.29935817 52.9948526 -53.57421875 51.5546875 C-53.20603027 50.82475586 -52.8378418 50.09482422 -52.45849609 49.34277344 C-51.45099665 47.33867134 -50.45189436 45.3307112 -49.45703125 43.3203125 C-47.44936648 39.26601432 -45.41940224 35.22339461 -43.375 31.1875 C-42.93720215 30.32302246 -42.4994043 29.45854492 -42.04833984 28.56787109 C-40.62481392 25.76956677 -39.18901548 22.97786651 -37.75 20.1875 C-37.3068042 19.31520752 -36.8636084 18.44291504 -36.40698242 17.54418945 C-28.35542323 2.03775843 -28.35542323 2.03775843 -20.84375 -1.18359375 C-14.16460022 -2.88508602 -6.21543677 -3.36567129 0 0 Z " fill="#FBFBFB" transform="translate(276.375,133.8125)"/>
<path d="M0 0 C17.49 0 34.98 0 53 0 C53 36.63 53 73.26 53 111 C45.41 111 37.82 111 30 111 C30 80.97 30 50.94 30 20 C20.1 20 10.2 20 0 20 C0 13.4 0 6.8 0 0 Z " fill="#FFFFFF" transform="translate(369,218)"/>
<path d="M0 0 C17.49 0 34.98 0 53 0 C53 36.63 53 73.26 53 111 C45.41 111 37.82 111 30 111 C30 80.97 30 50.94 30 20 C20.1 20 10.2 20 0 20 C0 13.4 0 6.8 0 0 Z " fill="#FFFFFF" transform="translate(174,218)"/>
<path d="M0 0 C27.72 0 55.44 0 84 0 C84 4.29 84 8.58 84 13 C72.45 13 60.9 13 49 13 C49 31.48 49 49.96 49 69 C44.38 69 39.76 69 35 69 C35 50.52 35 32.04 35 13 C23.45 13 11.9 13 0 13 C0 8.71 0 4.42 0 0 Z " fill="#FDFDFD" transform="translate(40,133)"/>
<path d="M0 0 C1.66721052 0.01121109 3.334441 0.01974222 5.00167847 0.02572632 C9.35868317 0.04847477 13.7144596 0.1072733 18.07098389 0.1739502 C22.52892447 0.23567788 26.98706639 0.26280593 31.4453125 0.29296875 C40.16983023 0.35703363 48.89335544 0.45923867 57.6171875 0.5859375 C57.35582197 1.94196335 57.08246607 3.29567842 56.8046875 4.6484375 C56.57845703 5.77958984 56.57845703 5.77958984 56.34765625 6.93359375 C55.43177808 10.25916207 53.97596571 13.41545501 52.6171875 16.5859375 C21.2671875 16.5859375 -10.0828125 16.5859375 -42.3828125 16.5859375 C-39.07380825 13.9387341 -36.27158833 11.8035022 -32.6953125 9.7109375 C-31.92832031 9.25976562 -31.16132813 8.80859375 -30.37109375 8.34375 C-29.38496094 7.76367188 -28.39882812 7.18359375 -27.3828125 6.5859375 C-26.76630325 6.10296204 -26.14979401 5.61998657 -25.51460266 5.12237549 C-17.47662513 -0.67413356 -9.45080624 -0.18795491 0 0 Z " fill="#020202" transform="translate(180.3828125,73.4140625)"/>
<path d="M0 0 C31.35 0 62.7 0 95 0 C91.11289918 3.10968066 87.90795032 5.25252083 83.60359192 7.49681091 C80.97982677 8.93145707 80.97982677 8.93145707 78.73222351 10.76966858 C70.36222815 17.12348753 62.5180696 16.91635465 52.51953125 16.68359375 C50.85375567 16.67051074 49.18795284 16.66055936 47.5221405 16.65357971 C43.1731611 16.62706567 38.8258621 16.55849369 34.47753906 16.48065186 C30.02627282 16.40857772 25.57473053 16.3769747 21.12304688 16.34179688 C12.41460008 16.26710078 3.70751004 16.14789673 -5 16 C-4.73863447 14.64397415 -4.46527857 13.29025908 -4.1875 11.9375 C-4.03667969 11.18339844 -3.88585937 10.42929687 -3.73046875 9.65234375 C-2.81459058 6.32677543 -1.35877821 3.17048249 0 0 Z " fill="#080808" transform="translate(227,371)"/>
<path d="M0 0 C4.05983652 2.231723 5.61463656 5.63789533 7.5 9.6875 C8.10538734 10.94665373 8.71085568 12.20576851 9.31640625 13.46484375 C10.14978516 15.21474609 10.14978516 15.21474609 11 17 C11.80810454 18.5855812 12.61957817 20.16946067 13.4375 21.75 C15 25 15 25 15 27 C2.79 27 -9.42 27 -22 27 C-19.39272012 21.13362026 -16.77333398 15.31612848 -13.9375 9.5625 C-13.59912109 8.85673828 -13.26074219 8.15097656 -12.91210938 7.42382812 C-9.69378988 0.90626427 -7.28407147 -0.63895364 0 0 Z " fill="#020202" transform="translate(268,145)"/>
</svg>
