<svg id="svg" xmlns="http://www.w3.org/2000/svg" xmlns:xlink="http://www.w3.org/1999/xlink" width="400" height="400" viewBox="0, 0, 400,400"><g id="svgg"><path id="path0" d="M143.043 2.134 C 141.130 3.303,137.609 5.341,135.217 6.663 C 132.826 7.985,130.187 9.472,129.354 9.968 C 128.520 10.464,122.123 14.196,115.138 18.261 C 108.153 22.326,101.400 26.272,100.132 27.030 C 98.864 27.787,96.065 29.402,93.913 30.618 C 91.761 31.834,87.517 34.247,84.482 35.980 C 81.447 37.713,78.802 39.130,78.605 39.130 C 78.407 39.130,76.625 40.304,74.645 41.739 C 72.664 43.174,70.753 44.348,70.399 44.348 C 69.848 44.348,64.036 47.654,50.435 55.705 C 38.170 62.964,19.067 73.913,18.666 73.913 C 18.397 73.913,16.057 75.269,13.465 76.927 C 10.874 78.585,6.784 80.939,4.377 82.159 L 0.000 84.377 0.015 200.232 L 0.030 316.087 6.312 319.565 C 9.768 321.478,14.359 324.030,16.515 325.235 C 21.777 328.177,32.959 334.727,35.646 336.442 C 36.839 337.203,40.649 339.391,44.114 341.304 C 47.578 343.217,56.123 348.109,63.102 352.174 C 70.081 356.239,77.423 360.486,79.417 361.612 C 81.412 362.738,85.587 365.143,88.696 366.957 C 91.804 368.770,95.957 371.176,97.924 372.301 C 99.890 373.427,107.218 377.674,114.208 381.739 C 128.707 390.172,138.124 395.595,142.791 398.200 C 145.958 399.967,147.018 400.000,200.461 400.000 L 254.904 400.000 261.148 396.242 C 264.582 394.175,271.109 390.394,275.652 387.840 C 280.196 385.286,284.891 382.585,286.087 381.838 C 290.672 378.975,307.192 369.565,307.633 369.565 C 307.888 369.565,309.379 368.587,310.947 367.391 C 312.514 366.196,314.075 365.217,314.415 365.217 C 314.754 365.217,318.204 363.324,322.081 361.010 C 325.958 358.696,336.761 352.410,346.087 347.042 C 355.413 341.673,363.630 336.941,364.348 336.527 C 365.065 336.112,369.565 333.530,374.348 330.789 C 379.130 328.048,385.783 324.202,389.130 322.242 C 392.478 320.282,396.293 318.127,397.609 317.453 L 400.000 316.228 400.000 200.349 L 400.000 84.470 393.430 80.713 C 389.816 78.647,385.218 76.031,383.212 74.900 C 381.206 73.768,377.413 71.561,374.783 69.994 C 372.152 68.427,368.630 66.376,366.957 65.435 C 365.283 64.494,358.630 60.675,352.174 56.948 C 345.717 53.222,336.717 48.038,332.174 45.428 C 327.630 42.819,323.522 40.391,323.043 40.032 C 322.565 39.674,320.022 38.198,317.391 36.752 C 314.761 35.306,308.696 31.874,303.913 29.126 C 299.130 26.377,293.848 23.353,292.174 22.405 C 290.500 21.457,286.978 19.405,284.348 17.845 C 281.717 16.285,275.652 12.756,270.870 10.001 C 266.087 7.246,260.609 3.967,258.696 2.714 L 255.217 0.435 200.870 0.221 L 146.522 0.007 143.043 2.134 M297.505 46.462 C 306.072 47.990,315.537 52.603,330.435 62.509 C 336.891 66.803,344.770 72.006,347.943 74.071 C 351.117 76.136,356.874 79.978,360.737 82.609 L 367.761 87.391 344.236 87.623 L 320.711 87.854 313.082 81.091 C 297.399 67.187,290.405 65.050,258.998 64.561 L 234.953 64.187 233.635 68.833 C 232.910 71.388,231.216 78.859,229.871 85.435 L 227.424 97.391 129.582 97.386 C 47.750 97.381,32.095 97.192,33.913 96.226 C 36.106 95.062,56.601 83.960,63.043 80.447 C 64.957 79.404,68.283 77.569,70.435 76.369 C 72.587 75.169,77.478 72.494,81.304 70.424 C 85.130 68.354,90.804 65.033,93.913 63.043 C 110.490 52.435,123.295 47.298,135.991 46.164 C 150.590 44.860,289.967 45.117,297.505 46.462 M137.661 67.208 C 135.179 68.743,130.092 71.855,126.357 74.122 L 119.565 78.244 161.189 78.035 L 202.813 77.826 204.341 73.913 C 205.182 71.761,206.145 68.728,206.482 67.174 L 207.095 64.348 174.634 64.382 L 142.174 64.416 137.661 67.208 M239.187 116.551 C 244.066 119.040,247.420 124.153,258.389 145.823 C 263.667 156.251,269.124 166.787,270.515 169.236 C 274.085 175.524,274.007 175.652,266.599 175.652 L 260.155 175.652 256.382 168.265 L 252.609 160.877 230.242 160.873 L 207.874 160.870 205.117 166.304 C 203.600 169.293,201.926 172.617,201.397 173.689 C 200.525 175.456,199.807 175.639,193.723 175.645 C 186.796 175.652,186.198 175.184,188.737 171.739 C 189.089 171.261,194.522 160.761,200.811 148.406 C 207.099 136.050,213.207 124.416,214.383 122.552 C 218.880 115.430,231.164 112.458,239.187 116.551 M107.826 121.304 L 107.826 126.957 92.609 126.957 L 77.391 126.957 77.391 151.304 L 77.391 175.652 71.304 175.652 L 65.217 175.652 65.217 151.304 L 65.217 126.957 50.000 126.957 L 34.783 126.957 34.783 121.304 L 34.783 115.652 71.304 115.652 L 107.826 115.652 107.826 121.304 M184.348 121.304 L 184.348 126.957 159.608 126.957 C 131.052 126.957,127.356 127.456,123.511 131.834 C 122.058 133.489,120.870 135.384,120.870 136.046 C 120.870 136.708,120.632 137.868,120.342 138.625 C 119.866 139.863,122.977 140.000,151.646 140.000 L 183.478 140.000 183.478 145.652 L 183.478 151.304 151.723 151.304 L 119.967 151.304 120.556 153.696 C 122.801 162.807,125.338 163.478,157.521 163.478 L 184.348 163.478 184.348 169.608 L 184.348 175.738 155.000 175.478 L 125.652 175.217 120.435 172.592 C 102.088 163.361,103.440 124.035,122.312 117.970 C 128.704 115.915,128.993 115.897,157.609 115.771 L 184.348 115.652 184.348 121.304 M296.737 120.000 C 298.658 122.152,301.723 125.870,303.549 128.261 C 309.750 136.384,321.005 149.999,321.741 150.267 C 322.144 150.414,323.972 148.583,325.802 146.198 C 347.932 117.361,349.901 115.652,360.999 115.652 L 367.826 115.652 367.826 145.652 L 367.826 175.652 361.739 175.652 L 355.652 175.652 355.630 152.391 L 355.609 129.130 352.370 132.670 C 350.588 134.617,346.587 139.303,343.478 143.082 C 340.370 146.862,337.239 150.597,336.522 151.383 C 335.804 152.168,333.321 155.211,331.003 158.145 L 326.789 163.478 322.016 163.478 C 316.683 163.478,317.511 164.148,306.974 151.304 C 299.806 142.566,298.614 141.129,293.043 134.492 L 288.261 128.794 288.030 152.223 L 287.798 175.652 281.725 175.652 L 275.652 175.652 275.652 145.571 L 275.652 115.489 284.449 115.788 L 293.245 116.087 296.737 120.000 M225.970 127.224 C 225.189 127.818,222.885 131.621,220.850 135.674 C 218.815 139.727,216.456 144.413,215.608 146.087 L 214.066 149.130 229.767 149.368 C 238.402 149.499,245.636 149.436,245.843 149.230 C 246.324 148.749,236.695 129.631,234.954 127.609 C 233.419 125.826,228.105 125.599,225.970 127.224 M145.217 198.696 L 145.217 207.826 102.295 207.826 L 59.373 207.826 58.824 212.391 C 58.523 214.902,58.273 219.574,58.268 222.773 L 58.261 228.590 93.696 228.867 C 127.863 229.135,129.315 229.214,134.285 231.083 C 159.067 240.399,158.489 274.012,133.390 283.117 L 126.522 285.608 81.087 285.884 L 35.652 286.160 35.652 276.993 L 35.652 267.826 76.479 267.826 C 121.184 267.826,124.499 267.541,128.702 263.338 C 133.466 258.574,131.746 250.767,125.184 247.374 C 123.093 246.293,116.342 246.087,82.972 246.087 L 43.249 246.087 40.320 242.982 C 38.709 241.274,37.393 239.611,37.394 239.286 C 37.411 236.193,40.960 194.538,41.390 192.391 L 41.957 189.565 93.587 189.565 L 145.217 189.565 145.217 198.696 M197.391 237.826 L 197.391 286.087 187.391 286.087 L 177.391 286.087 177.391 246.522 L 177.391 206.957 164.348 206.957 L 151.304 206.957 151.304 198.261 L 151.304 189.565 174.348 189.565 L 197.391 189.565 197.391 237.826 M315.641 199.783 C 315.616 222.643,310.424 229.603,279.796 247.826 C 264.148 257.136,260.870 262.238,260.870 277.275 L 260.870 286.087 249.901 286.087 L 238.933 286.087 239.311 274.130 C 239.938 254.305,244.217 248.235,268.243 233.099 C 272.846 230.199,276.886 227.801,277.219 227.771 C 281.050 227.422,292.220 214.804,293.528 209.348 L 294.102 206.957 247.920 206.957 L 201.739 206.957 201.739 198.261 L 201.739 189.565 258.696 189.565 L 315.652 189.565 315.641 199.783 M366.957 237.826 L 366.957 286.087 356.957 286.087 L 346.957 286.087 346.957 246.522 L 346.957 206.957 333.913 206.957 L 320.870 206.957 320.870 198.261 L 320.870 189.565 343.913 189.565 L 366.957 189.565 366.957 237.826 M365.184 305.081 C 363.528 305.962,355.522 310.315,347.391 314.754 C 339.261 319.192,329.674 324.365,326.087 326.247 C 318.370 330.298,311.427 334.290,306.248 337.655 C 302.674 339.977,300.898 341.030,292.388 345.873 C 282.200 351.672,273.448 353.792,255.652 354.772 C 234.192 355.955,117.258 355.895,107.391 354.697 C 94.399 353.119,81.939 346.919,58.696 330.467 C 57.261 329.451,50.882 325.213,44.521 321.049 L 32.956 313.478 56.552 313.247 L 80.148 313.015 86.897 318.972 C 103.810 333.900,114.325 336.862,148.567 336.342 L 165.394 336.087 166.527 332.609 C 167.150 330.696,168.694 324.043,169.959 317.826 C 171.224 311.609,172.461 305.837,172.710 305.000 C 173.136 303.562,178.556 303.478,270.677 303.478 C 365.932 303.478,368.124 303.515,365.184 305.081 M197.106 324.130 C 196.838 324.967,195.814 327.963,194.831 330.787 C 193.848 333.611,193.043 336.057,193.043 336.222 C 193.043 336.387,207.501 336.522,225.171 336.522 L 257.298 336.522 262.345 333.462 C 265.120 331.779,267.978 330.025,268.696 329.564 C 269.413 329.104,272.348 327.351,275.217 325.670 L 280.435 322.613 239.014 322.611 C 200.331 322.609,197.562 322.709,197.106 324.130 " stroke="none" fill="#000000" fill-rule="evenodd"></path></g></svg>